<svg width="20" height="18" viewBox="0 0 20 18" fill="none" xmlns="http://www.w3.org/2000/svg">
<path d="M17 9V5H3C2.46957 5 1.96086 4.78929 1.58579 4.41421C1.21071 4.03914 1 3.53043 1 3C1 1.9 1.9 1 3 1H15V5" stroke="white" stroke-opacity="0.7" stroke-width="2" stroke-linecap="round" stroke-linejoin="round"/>
<path d="M1 3V15C1 16.1 1.9 17 3 17H17V13" stroke="white" stroke-opacity="0.7" stroke-width="2" stroke-linecap="round" stroke-linejoin="round"/>
<path d="M15 9C14.4696 9 13.9609 9.21071 13.5858 9.58579C13.2107 9.96086 13 10.4696 13 11C13 12.1 13.9 13 15 13H19V9H15Z" stroke="white" stroke-opacity="0.7" stroke-width="2" stroke-linecap="round" stroke-linejoin="round"/>
</svg>
